# xmcd
#
# Track frame offsets: 
#        150
#        21038
#        42052
#        53900
#        80430
#        106595
#        126451
#        139495
#        152908
#        178119
#        192284
#        224067
#        257605
#        273170
#
# Disc length: 4091 seconds
#
# Revision: 0
# Processed by: cddbd v1.5.2PL0 Copyright (c) Steve Scherf et al.
# Submitted via: ExactAudioCopy v0.99pb3
#
DISCID=c90ff90e
DTITLE=Jim Livermore - Coming Home
DYEAR=2007
DGENRE=Country
TTITLE0=Mexican Home
TTITLE1=Fourth of July
TTITLE2=Tonight the Bottle Let Me Down
TTITLE3=Letter to L.A.
TTITLE4=N.Y.C
TTITLE5=Pot of Gold
TTITLE6=The Race Is On
TTITLE7=Swinging Doors
TTITLE8=Taneytown
TTITLE9=Who Were You Thinkin' Of
TTITLE10=Water in the Fuel
TTITLE11=Roll Truck Roll
TTITLE12=Walking on the Moon
TTITLE13=I'm Coming Home
EXTD=
EXTT0=
EXTT1=
EXTT2=
EXTT3=
EXTT4=
EXTT5=
EXTT6=
EXTT7=
EXTT8=
EXTT9=
EXTT10=
EXTT11=
EXTT12=
EXTT13=
PLAYORDER=
